REM DIRINDEX 1\2\6,1\2\7,1\2\8,1\2\9,1\3\10,1\3\11,1\4\12,1\4\13,1\4\14,1\5\15,1\5\16,1\5\17
REM DIRNAME folder01,folder02,folder03,folder04,folder05,folder06,folder07,folder08,folder09,folder10,folder11,folder12,folder13,folder14,folder15,folder16,folder17
TITLE ""
FILE "1900_2_sec17_1656_1674.mp3" MP3
  TRACK 01 AUDIO
    TITLE "0:"
    INDEX 01 00:00:00
  TRACK 02 AUDIO
    TITLE "13:cjc020_5466"
    INDEX 01 00:00:19
  TRACK 03 AUDIO
    TITLE "0:"
    INDEX 01 00:01:17
  TRACK 04 AUDIO
    TITLE "14:cjc020_5467"
    INDEX 01 00:01:21
  TRACK 05 AUDIO
    TITLE "0:"
    INDEX 01 00:04:15
  TRACK 06 AUDIO
    TITLE "13:cjc020_5468"
    INDEX 01 00:04:70
  TRACK 07 AUDIO
    TITLE "0:"
    INDEX 01 00:06:12
  TRACK 08 AUDIO
    TITLE "14:cjc020_5469"
    INDEX 01 00:06:14
  TRACK 09 AUDIO
    TITLE "0:"
    INDEX 01 00:08:62
  TRACK 10 AUDIO
    TITLE "13:cjc020_5470"
    INDEX 01 00:09:42
  TRACK 11 AUDIO
    TITLE "0:"
    INDEX 01 00:10:45
  TRACK 12 AUDIO
    TITLE "14:cjc020_5471"
    INDEX 01 00:10:49
  TRACK 13 AUDIO
    TITLE "0:"
    INDEX 01 00:12:56
  TRACK 14 AUDIO
    TITLE "13:cjc020_5472"
    INDEX 01 00:13:37
  TRACK 15 AUDIO
    TITLE "0:"
    INDEX 01 00:14:33
  TRACK 16 AUDIO
    TITLE "14:cjc020_5473"
    INDEX 01 00:14:37
  TRACK 17 AUDIO
    TITLE "0:"
    INDEX 01 00:17:18
  TRACK 18 AUDIO
    TITLE "13:cjc020_5474"
    INDEX 01 00:17:70
  TRACK 19 AUDIO
    TITLE "0:"
    INDEX 01 00:18:72
  TRACK 20 AUDIO
    TITLE "14:cjc020_5475"
    INDEX 01 00:18:74
  TRACK 21 AUDIO
    TITLE "0:"
    INDEX 01 00:20:06
  TRACK 22 AUDIO
    TITLE "13:cjc020_5476"
    INDEX 01 00:20:59
  TRACK 23 AUDIO
    TITLE "0:"
    INDEX 01 00:22:15
  TRACK 24 AUDIO
    TITLE "14:cjc020_5477"
    INDEX 01 00:22:21
  TRACK 25 AUDIO
    TITLE "0:"
    INDEX 01 00:24:43
  TRACK 26 AUDIO
    TITLE "13:cjc020_5478"
    INDEX 01 00:25:23
  TRACK 27 AUDIO
    TITLE "0:"
    INDEX 01 00:26:24
  TRACK 28 AUDIO
    TITLE "14:cjc020_5479"
    INDEX 01 00:26:28
  TRACK 29 AUDIO
    TITLE "0:"
    INDEX 01 00:28:39
  TRACK 30 AUDIO
    TITLE "13:cjc020_5480"
    INDEX 01 00:29:17
  TRACK 31 AUDIO
    TITLE "0:"
    INDEX 01 00:30:16
  TRACK 32 AUDIO
    TITLE "14:cjc020_5481"
    INDEX 01 00:30:18
  TRACK 33 AUDIO
    TITLE "0:"
    INDEX 01 00:32:58
  TRACK 34 AUDIO
    TITLE "13:cjc020_5482"
    INDEX 01 00:33:36
  TRACK 35 AUDIO
    TITLE "0:"
    INDEX 01 00:34:53
  TRACK 36 AUDIO
    TITLE "14:cjc020_5483"
    INDEX 01 00:34:55
  TRACK 37 AUDIO
    TITLE "0:"
    INDEX 01 00:36:68
  TRACK 38 AUDIO
    TITLE "13:cjc020_5484"
    INDEX 01 00:37:48
  TRACK 39 AUDIO
    TITLE "0:"
    INDEX 01 00:38:63
  TRACK 40 AUDIO
    TITLE "14:cjc020_5485"
    INDEX 01 00:38:69
  TRACK 41 AUDIO
    TITLE "0:"
    INDEX 01 00:41:30
  TRACK 42 AUDIO
    TITLE "13:cjc020_5486"
    INDEX 01 00:42:08
  TRACK 43 AUDIO
    TITLE "0:"
    INDEX 01 00:43:23
  TRACK 44 AUDIO
    TITLE "14:cjc020_5487"
    INDEX 01 00:43:31
  TRACK 45 AUDIO
    TITLE "0:"
    INDEX 01 00:45:71
  TRACK 46 AUDIO
    TITLE "13:cjc020_5488"
    INDEX 01 00:46:53
  TRACK 47 AUDIO
    TITLE "0:"
    INDEX 01 00:47:62
  TRACK 48 AUDIO
    TITLE "14:cjc020_5489"
    INDEX 01 00:47:68
  TRACK 49 AUDIO
    TITLE "0:"
    INDEX 01 00:50:39
  TRACK 50 AUDIO
    TITLE "13:cjc020_5490"
    INDEX 01 00:51:20
  TRACK 51 AUDIO
    TITLE "0:"
    INDEX 01 00:52:26
  TRACK 52 AUDIO
    TITLE "14:cjc020_5491"
    INDEX 01 00:52:30
  TRACK 53 AUDIO
    TITLE "0:"
    INDEX 01 00:54:23
  TRACK 54 AUDIO
    TITLE "13:cjc020_5492"
    INDEX 01 00:55:03
  TRACK 55 AUDIO
    TITLE "0:"
    INDEX 01 00:56:12
  TRACK 56 AUDIO
    TITLE "14:cjc020_5493"
    INDEX 01 00:56:16
  TRACK 57 AUDIO
    TITLE "0:"
    INDEX 01 00:57:35
  TRACK 58 AUDIO
    TITLE "13:cjc020_5494"
    INDEX 01 00:58:17
  TRACK 59 AUDIO
    TITLE "0:"
    INDEX 01 00:59:30
  TRACK 60 AUDIO
    TITLE "14:cjc020_5495"
    INDEX 01 00:59:34
  TRACK 61 AUDIO
    TITLE "0:"
    INDEX 01 01:01:60
  TRACK 62 AUDIO
    TITLE "13:cjc020_5496"
    INDEX 01 01:02:38
  TRACK 63 AUDIO
    TITLE "0:"
    INDEX 01 01:03:43
  TRACK 64 AUDIO
    TITLE "14:cjc020_5497"
    INDEX 01 01:03:47
  TRACK 65 AUDIO
    TITLE "0:"
    INDEX 01 01:06:53
  TRACK 66 AUDIO
    TITLE "13:cjc020_5498"
    INDEX 01 01:07:29
  TRACK 67 AUDIO
    TITLE "0:"
    INDEX 01 01:08:48
  TRACK 68 AUDIO
    TITLE "14:cjc020_5499"
    INDEX 01 01:08:50
  TRACK 69 AUDIO
    TITLE "0:"
    INDEX 01 01:11:74
  TRACK 70 AUDIO
    TITLE "12:cjc020_5500"
    INDEX 01 01:13:49
  TRACK 71 AUDIO
    TITLE "0:"
    INDEX 01 01:15:17
  TRACK 72 AUDIO
    TITLE "13:cjc020_5501"
    INDEX 01 01:16:18
  TRACK 73 AUDIO
    TITLE "0:"
    INDEX 01 01:17:18
  TRACK 74 AUDIO
    TITLE "14:cjc020_5502"
    INDEX 01 01:17:24
  TRACK 75 AUDIO
    TITLE "0:"
    INDEX 01 01:19:72
  TRACK 76 AUDIO
    TITLE "13:cjc020_5503"
    INDEX 01 01:20:51
  TRACK 77 AUDIO
    TITLE "0:"
    INDEX 01 01:21:55
  TRACK 78 AUDIO
    TITLE "14:cjc020_5504"
    INDEX 01 01:21:57
  TRACK 79 AUDIO
    TITLE "0:"
    INDEX 01 01:24:59
